HIERARCHY
ROOT Hips
{
	OFFSET 0.000000 0.000000 0.000000 
	CHANNELS 6 Xposition Yposition Zposition Zrotation Yrotation Xrotation
	JOINT LeftUpLeg
	{
		OFFSET 1.363060 -1.794630 0.839290 
		CHANNELS 3 Zrotation Yrotation Xrotation
		JOINT LeftLeg
		{
			OFFSET 2.448110 -6.726130 0.000000 
			CHANNELS 3 Zrotation Yrotation Xrotation
			JOINT LeftFoot
			{
				OFFSET 2.562200 -7.039590 0.000000 
				CHANNELS 3 Zrotation Yrotation Xrotation
				JOINT LeftToeBase
				{
					OFFSET 0.157640 -0.433110 2.322550 
					CHANNELS 3 Zrotation Yrotation Xrotation
					End Site
					{
						OFFSET 0.000000 0.000000 0.000000 
					}
				}
			}
		}
	}
	JOINT RightUpLeg
	{
		OFFSET -1.305520 -1.794630 0.839290 
		CHANNELS 3 Zrotation Yrotation Xrotation
		JOINT RightLeg
		{
			OFFSET -2.542530 -6.985550 0.000000 
			CHANNELS 3 Zrotation Yrotation Xrotation
			JOINT RightFoot
			{
				OFFSET -2.568260 -7.056230 0.000000 
				CHANNELS 3 Zrotation Yrotation Xrotation
				JOINT RightToeBase
				{
					OFFSET -0.164730 -0.452590 2.363150 
					CHANNELS 3 Zrotation Yrotation Xrotation
					End Site
					{
						OFFSET 0.000000 0.000000 0.000000 
					}
				}
			}
		}
	}
	JOINT Spine
	{
		OFFSET 0.028270 2.035590 -0.193380 
		CHANNELS 3 Zrotation Yrotation Xrotation
		JOINT Spine1
		{
			OFFSET 0.056720 2.048850 -0.042750 
			CHANNELS 3 Zrotation Yrotation Xrotation
			JOINT Neck1
			{
				OFFSET -0.054170 1.746240 0.172020 
				CHANNELS 3 Zrotation Yrotation Xrotation
				JOINT Head
				{
					OFFSET 0.104070 1.761360 -0.123970 
					CHANNELS 3 Zrotation Yrotation Xrotation
					End Site
					{
						OFFSET 0.000000 0.000000 0.000000 
					}
				}
			}
			JOINT LeftArm
			{
				OFFSET 3.362410 1.200890 -0.311210 
				CHANNELS 3 Zrotation Yrotation Xrotation
				JOINT LeftForeArm
				{
					OFFSET 4.983000 -0.000000 -0.000000 
					CHANNELS 3 Zrotation Yrotation Xrotation
					JOINT LeftHand
					{
						OFFSET 3.483560 -0.000000 -0.000000 
						CHANNELS 3 Zrotation Yrotation Xrotation
						JOINT LeftHandIndex1
						{
							OFFSET 0.715260 -0.000000 -0.000000 
							CHANNELS 3 Zrotation Yrotation Xrotation
							End Site
							{
								OFFSET 0.000000 0.000000 0.000000 
							}
						}
					}
				}
			}
			JOINT RightArm
			{
				OFFSET -3.136600 1.374050 -0.404650 
				CHANNELS 3 Zrotation Yrotation Xrotation
				JOINT RightForeArm
				{
					OFFSET -5.241900 -0.000000 -0.000000 
					CHANNELS 3 Zrotation Yrotation Xrotation
					JOINT RightHand
					{
						OFFSET -3.444170 -0.000000 -0.000000 
						CHANNELS 3 Zrotation Yrotation Xrotation
						JOINT RightHandIndex1
						{
							OFFSET -0.622530 -0.000000 -0.000000 
							CHANNELS 3 Zrotation Yrotation Xrotation
							End Site
							{
								OFFSET 0.000000 0.000000 0.000000 
							}
						}
					}
				}
			}
		}
	}
}
MOTION
Frames: 17
Frame Time: 0.041667
0.859118 19.939398 -16.670889 179.210383 -4.727191 -169.302263 -0.712434 -3.427347 -20.556937 -2.022735 8.267934 22.218277 6.330218 -0.684719 31.279186 0.292100 3.475400 9.605100 3.055041 1.654764 -19.370778 -0.205864 -8.741862 20.186908 9.149524 -25.820403 19.847095 -0.216800 2.997400 -8.271400 0.339058 -0.122337 -5.092364 2.961230 0.277778 -5.522821 6.436015 -3.017142 3.820393 1.736200 -1.363000 5.457600 -83.062512 7.957795 13.980455 6.931047 -17.577448 -2.516423 -1.654760 -1.129659 17.935912 -7.125000 0.000000 0.000000 87.336552 -2.210180 27.128002 -13.704967 22.205349 -4.650919 2.345284 0.869722 6.704212 7.125000 0.000000 0.000000 
0.856665 19.937279 -16.703568 179.164307 -4.732659 -169.227873 -0.758941 -3.384664 -20.557476 -2.038746 8.262271 22.221480 6.388286 -0.812176 31.271562 0.302600 3.536900 9.777400 3.034071 1.600281 -19.378206 -0.208008 -8.746443 20.220740 9.114745 -25.727060 19.792217 -0.220900 3.025700 -8.350300 0.341255 -0.138331 -5.095136 3.035364 0.270005 -5.522640 6.466416 -2.973473 3.812100 1.745700 -1.337800 5.455300 -83.128770 7.898483 14.480493 7.159955 -17.867804 -2.600733 -1.655034 -1.148613 17.378587 -7.125000 0.000000 0.000000 87.267447 -2.242724 26.616854 -13.289997 21.708556 -4.434084 2.342166 0.859201 7.409023 7.125000 0.000000 0.000000 
0.854211 19.935606 -16.736023 179.119257 -4.750254 -169.154452 -0.802685 -3.341156 -20.557820 -2.057452 8.254529 22.221999 6.455863 -0.957500 31.281970 0.315700 3.611600 9.986500 3.015062 1.536544 -19.387026 -0.209407 -8.749857 20.250599 9.077019 -25.631684 19.744644 -0.223800 3.045100 -8.404200 0.343656 -0.158865 -5.097648 3.102333 0.259024 -5.518120 6.495863 -2.933074 3.811071 1.755000 -1.314000 5.461400 -83.198124 7.832511 15.005856 7.405567 -18.175226 -2.691978 -1.660929 -1.172222 16.746876 -7.125000 0.000000 0.000000 87.218646 -2.290193 26.029312 -12.909751 21.249692 -4.240178 2.341059 0.854547 8.044367 7.125000 0.000000 0.000000 
0.852092 19.934268 -16.767921 179.081126 -4.772482 -169.081438 -0.840004 -3.297627 -20.560431 -2.077014 8.245802 22.220882 6.527885 -1.110162 31.305324 0.330500 3.694900 10.220000 2.999092 1.478770 -19.393370 -0.210114 -8.751651 20.274560 9.045679 -25.549666 19.698695 -0.226100 3.060600 -8.447500 0.346280 -0.180586 -5.100064 3.163028 0.246800 -5.511171 6.526296 -2.895010 3.814737 1.766500 -1.291200 5.473600 -83.267793 7.750294 15.549591 7.661349 -18.490069 -2.787582 -1.670770 -1.196798 16.070921 -7.125000 0.000000 0.000000 87.189644 -2.349621 25.372685 -12.564246 20.829493 -4.068300 2.343515 0.852958 8.599939 7.125000 0.000000 0.000000 
0.850084 19.933264 -16.799261 179.048857 -4.801832 -169.008667 -0.869995 -3.259918 -20.561792 -2.095841 8.237540 22.220430 6.600146 -1.262810 31.330028 0.345300 3.775900 10.446900 2.987340 1.425826 -19.396018 -0.210044 -8.752039 20.292067 9.022524 -25.483579 19.651415 -0.228000 3.073600 -8.483700 0.348993 -0.202881 -5.102811 3.213947 0.233411 -5.505277 6.555843 -2.863460 3.823205 1.778400 -1.271500 5.491600 -83.333435 7.658613 16.119918 7.927447 -18.813472 -2.887730 -1.682511 -1.221761 15.370026 -7.125000 0.000000 0.000000 87.172310 -2.425856 24.686563 -12.256135 20.453427 -3.918548 2.350916 0.858600 9.050461 7.125000 0.000000 0.000000 
0.848635 19.932595 -16.830043 179.025181 -4.834148 -168.935356 -0.891346 -3.227564 -20.564795 -2.112115 8.230924 22.221512 6.668036 -1.405875 31.350229 0.357900 3.843600 10.637100 2.979839 1.389664 -19.392420 -0.209315 -8.750968 20.302825 9.013894 -25.442156 19.595556 -0.229600 3.084500 -8.514000 0.352039 -0.224610 -5.105699 3.257250 0.219669 -5.498846 6.583963 -2.836826 3.835240 1.790000 -1.254200 5.514400 -83.392487 7.549869 16.710801 8.199411 -19.139225 -2.990788 -1.695032 -1.243579 14.670999 -7.125000 0.000000 0.000000 87.163903 -2.512151 23.991784 -11.983415 20.119313 -3.788765 2.362716 0.871925 9.385388 7.125000 0.000000 0.000000 
0.847408 19.932149 -16.860379 179.007780 -4.871787 -168.860548 -0.904869 -3.205167 -20.567222 -2.125448 8.226419 22.225045 6.728690 -1.534464 31.360911 0.368200 3.897400 10.788300 2.976676 1.366007 -19.384074 -0.208588 -8.748962 20.307927 9.021280 -25.427477 19.528485 -0.231600 3.097200 -8.549400 0.355624 -0.247641 -5.108770 3.293807 0.204822 -5.492721 6.610721 -2.813028 3.847994 1.801900 -1.238700 5.537200 -83.445465 7.426779 17.316791 8.476013 -19.466282 -3.096270 -1.707197 -1.262042 13.994421 -7.125000 0.000000 0.000000 87.158197 -2.612908 23.313413 -11.746012 19.829374 -3.678332 2.377908 0.892527 9.610330 7.125000 0.000000 0.000000 
0.846739 19.931702 -16.890493 178.991968 -4.911988 -168.784985 -0.914164 -3.194871 -20.567325 -2.135259 8.224623 22.231118 6.777727 -1.640288 31.357041 0.374700 3.931300 10.883600 2.973826 1.357640 -19.369858 -0.208198 -8.746519 20.308811 9.044278 -25.437526 19.448189 -0.233800 3.111800 -8.590200 0.359374 -0.270285 -5.111443 3.326261 0.189584 -5.483831 6.635733 -2.794726 3.860927 1.812900 -1.225900 5.560800 -83.490934 7.282802 17.928986 8.752949 -19.789045 -3.202543 -1.718186 -1.274823 13.362308 -7.125000 0.000000 0.000000 87.151672 -2.720058 22.670324 -11.542004 19.581087 -3.585373 2.395683 0.922244 9.723865 7.125000 0.000000 0.000000 
0.846739 19.931256 -16.919937 178.975672 -4.953373 -168.705904 -0.922415 -3.194376 -20.567396 -2.141685 8.225042 22.238896 6.814702 -1.722660 31.332176 0.377000 3.943600 10.918100 2.969323 1.363194 -19.352941 -0.208633 -8.743962 20.307595 9.080832 -25.468475 19.355346 -0.236000 3.126800 -8.631900 0.363248 -0.293864 -5.114588 3.356210 0.173871 -5.477773 6.657490 -2.777982 3.873285 1.822100 -1.214400 5.583100 -83.530998 7.122755 18.541503 9.031198 -20.108791 -3.310112 -1.727294 -1.282799 12.782659 -7.125000 0.000000 0.000000 87.141642 -2.839726 22.074414 -11.367894 19.371572 -3.507862 2.415435 0.955415 9.743691 7.125000 0.000000 0.000000 
0.847185 19.930699 -16.949046 178.952729 -4.998925 -168.623347 -0.932358 -3.203495 -20.566013 -2.146783 8.226175 22.246219 6.842907 -1.788294 31.301744 0.378500 3.951200 10.939500 2.961577 1.373800 -19.335990 -0.210637 -8.742119 20.306308 9.127760 -25.515179 19.252192 -0.238900 3.145600 -8.684500 0.367144 -0.320825 -5.117685 3.384271 0.156519 -5.472486 6.676383 -2.763539 3.883962 1.829200 -1.204500 5.600800 -83.564901 6.950849 19.146830 9.309148 -20.424647 -3.418756 -1.734452 -1.285873 12.262796 -7.125000 0.000000 0.000000 87.127597 -2.970746 21.532579 -11.220865 19.198123 -3.444146 2.435206 0.990608 9.687944 7.125000 0.000000 0.000000 
0.847965 19.929806 -16.977932 178.924956 -5.047781 -168.537144 -0.946008 -3.219796 -20.563320 -2.150875 8.227580 22.252920 6.863053 -1.839052 31.261877 0.378900 3.953100 10.944900 2.951653 1.378280 -19.324181 -0.213661 -8.741076 20.306966 9.176075 -25.562979 19.145536 -0.242600 3.169500 -8.751000 0.370942 -0.351219 -5.120998 3.409355 0.137476 -5.468859 6.690434 -2.748779 3.894187 1.832400 -1.195000 5.615800 -83.595972 6.770965 19.742830 9.590760 -20.741454 -3.530245 -1.739168 -1.285238 11.797859 -7.125000 0.000000 0.000000 87.106742 -3.110918 21.051712 -11.097370 19.056731 -3.392046 2.454763 1.024889 9.580491 7.125000 0.000000 0.000000 
0.849192 19.928468 -17.006373 178.893161 -5.096719 -168.451049 -0.960044 -3.242740 -20.558507 -2.153989 8.228887 22.257796 6.876657 -1.876591 31.214512 0.379000 3.954000 10.947400 2.941151 1.381563 -19.315675 -0.217159 -8.740558 20.309921 9.224371 -25.609144 19.035239 -0.246600 3.195800 -8.824300 0.374844 -0.383365 -5.124612 3.433377 0.117689 -5.469586 6.701774 -2.733266 3.904052 1.834700 -1.185700 5.628300 -83.627802 6.584541 20.321080 9.875489 -21.057844 -3.644418 -1.741296 -1.281954 11.387516 -7.125000 0.000000 0.000000 87.081817 -3.259655 20.614228 -10.996539 18.945956 -3.351327 2.473007 1.055320 9.458451 7.125000 0.000000 0.000000 
0.850754 19.926795 -17.034367 178.861433 -5.146964 -168.362934 -0.972028 -3.268929 -20.552738 -2.156480 8.229553 22.260484 6.887517 -1.908097 31.160295 0.378800 3.952700 10.943500 2.933529 1.381020 -19.311377 -0.220234 -8.740549 20.315701 9.268577 -25.646367 18.922437 -0.250700 3.221800 -8.897000 0.379049 -0.417549 -5.128909 3.454535 0.097227 -5.479554 6.707959 -2.718435 3.911158 1.833200 -1.177400 5.633500 -83.659621 6.408271 20.886874 10.168582 -21.382385 -3.764347 -1.740727 -1.279124 11.017918 -7.125000 0.000000 0.000000 87.053530 -3.420916 20.222634 -10.916083 18.863477 -3.320573 2.489794 1.081796 9.335440 7.125000 0.000000 0.000000 
0.852761 19.924565 -17.062026 178.833041 -5.194208 -168.274853 -0.980895 -3.296949 -20.545688 -2.158125 8.229978 22.261703 6.897040 -1.935924 31.097643 0.378800 3.952900 10.944200 2.930156 1.373161 -19.312120 -0.222051 -8.740240 20.323175 9.303388 -25.667374 18.814381 -0.255100 3.249700 -8.974800 0.383949 -0.453634 -5.132950 3.474622 0.075639 -5.488650 6.709673 -2.699954 3.919221 1.829300 -1.167900 5.638900 -83.696446 6.227756 21.428163 10.468180 -21.710752 -3.888930 -1.737781 -1.275453 10.680757 -7.125000 0.000000 0.000000 87.020372 -3.582167 19.875011 -10.854882 18.806833 -3.299169 2.504629 1.102801 9.226765 7.125000 0.000000 0.000000 
0.854880 19.921888 -17.089351 178.809692 -5.237538 -168.187911 -0.985377 -3.326472 -20.536903 -2.159140 8.230095 22.261909 6.907343 -1.964403 31.028149 0.379600 3.956800 10.955200 2.931841 1.357170 -19.317334 -0.222168 -8.739380 20.331643 9.326331 -25.668891 18.714433 -0.259800 3.279300 -9.057200 0.389105 -0.488886 -5.137871 3.492567 0.054606 -5.507387 6.710642 -2.682231 3.927938 1.827400 -1.159300 5.641900 -83.738806 6.060481 21.952386 10.776094 -22.046138 -4.019271 -1.732902 -1.272732 10.363444 -7.125000 0.000000 0.000000 86.981738 -3.754271 19.569021 -10.811496 18.775570 -3.286468 2.517129 1.118775 9.138374 7.125000 0.000000 0.000000 
0.857445 19.918765 -17.116230 178.791405 -5.275945 -168.104307 -0.983579 -3.355718 -20.526314 -2.159574 8.229834 22.261307 6.920292 -1.996783 30.953159 0.381000 3.964300 10.976100 2.940566 1.333420 -19.326385 -0.219680 -8.737697 20.341281 9.334056 -25.644859 18.622944 -0.264200 3.306900 -9.134300 0.395215 -0.524760 -5.142882 3.508411 0.033343 -5.529392 6.706469 -2.661683 3.938100 1.821900 -1.149800 5.645600 -83.786383 5.896404 22.453087 11.089415 -22.384372 -4.154153 -1.726649 -1.270360 10.055590 -7.125000 0.000000 0.000000 86.937824 -3.925984 19.308306 -10.785739 18.767659 -3.281990 2.527843 1.131487 9.064953 7.125000 0.000000 0.000000 
0.860122 19.915308 -17.142663 178.778033 -5.304208 -168.020557 -0.978775 -3.383571 -20.515346 -2.159212 8.229593 22.259823 6.932888 -2.027371 30.871846 0.382800 3.973500 11.002200 2.951618 1.306449 -19.338099 -0.215217 -8.735028 20.350736 9.328221 -25.599104 18.542366 -0.269100 3.336700 -9.217500 0.401799 -0.559185 -5.148058 3.522500 0.012920 -5.556960 6.695805 -2.638936 3.946901 1.811500 -1.140000 5.646000 -83.839036 5.739169 22.934745 11.406880 -22.724559 -4.292876 -1.720241 -1.270116 9.745110 -7.125000 0.000000 0.000000 86.888440 -4.098908 19.090756 -10.775952 18.781037 -3.285012 2.536131 1.142844 9.007932 7.125000 0.000000 0.000000 
